<svg width="64" height="64" viewBox="0 0 64 64" xmlns="http://www.w3.org/2000/svg" role="img" aria-label="Azure Script Hub icon">
  <defs>
    <linearGradient id="bg" x1="0" y1="0" x2="1" y2="1">
      <stop offset="0%" stop-color="#0EA5E9" />
      <stop offset="100%" stop-color="#2563EB" />
    </linearGradient>
  </defs>
  <rect x="4" y="4" width="56" height="56" rx="14" fill="url(#bg)" />
  <path d="M18 35C18 29.477 22.477 25 28 25C30.871 25 33.46 26.208 35.286 28.144C36.232 27.436 37.408 27 38.688 27C41.89 27 44.5 29.61 44.5 32.812C44.5 33.057 44.486 33.299 44.458 33.537C46.505 34.37 48 36.379 48 38.75C48 41.873 45.373 44.5 42.25 44.5H27.5C22.253 44.5 18 40.247 18 35Z" fill="#E0F2FE" />
  <path d="M23.5 24.5L19 29L23.5 33.5" stroke="#FFFFFF" stroke-width="3" stroke-linecap="round" stroke-linejoin="round" />
  <path d="M40.5 24.5L45 29L40.5 33.5" stroke="#FFFFFF" stroke-width="3" stroke-linecap="round" stroke-linejoin="round" />
  <path d="M34 22L30 36" stroke="#FFFFFF" stroke-width="3" stroke-linecap="round" />
</svg>
